PathFileType	4	(X/Y/Z)	C:/Users/beibeiliu/ov580/test_trc/capture2\sequence.38_training_dense_right.trc
DataRate	CameraRate	NumFrames	NumMarkers	Units	OrigDataRate	OrigDataStartFrame	OrigNumFrames
120	120	8	19	mm	120	151	400
Frame#	Time	ThumbCMC			ThumbMCP			ThumbIP			ThumbTip			IndexMCP			IndexPIP			IndexTip			MiddleMCP			MiddlePIP			MiddleTip			RingMCP			RingPIP			RingTip			PinkyMCP			PinkyPIP			PinkyTip			BackHand1			BackHand2			BackHand3	
		X0	Y0	Z0	X1	Y1	Z1	X2	Y2	Z2	X3	Y3	Z3	X4	Y4	Z4	X5	Y5	Z5	X6	Y6	Z6	X7	Y7	Z7	X8	Y8	Z8	X9	Y9	Z9	X10	Y10	Z10	X11	Y11	Z11	X12	Y12	Z12	X13	Y13	Z13	X14	Y14	Z14	X15	Y15	Z15	X16	Y16	Z16	X17	Y17	Z17	X18	Y18	Z18	
150	1.25	105.945	-20.2344	59.501	108.58	-39.071	32.5249	105.096	-50.0454	9.61533	105.196	-54.0259	-16.1856	88.2758	11.23	-5.06382	85.9904	2.73927	-32.9642	102.22	-17.2064	-56.2865	108.689	30.8776	-12.9039	111.833	24.8014	-43.9494	123.681	6.22114	-68.5204	128.408	38.7851	-7.82769	131.046	38.6765	-39.6502	134.981	27.5006	-62.3174	151.168	41.9398	0.96064	159.356	47.5261	-18.9947	167.095	53.2042	-45.6754	129.739	38.6372	41.6829	135.418	34.1693	70.1058	107.264	20.392	56.7765	
151	1.25833	103.745	-22.3854	56.967	108.207	-42.8296	34.0924	106.323	-48.4342	6.40025	109.669	-51.7704	-16.6258	86.7501	7.95221	-4.6606	89.5423	2.5161	-33.4995	106.873	-17.1417	-55.8104	107.2	29.1396	-10.0496	108.371	23.9581	-41.5551	118.491	5.64784	-65.8747	127.074	41.2262	-11.7612	129.965	39.1335	-39.2488	136.035	27.8491	-61.1012	151.984	44.9643	2.90775	156.602	48.9869	-21.2978	164.457	52.9778	-46.3902	126.949	36.6482	43.0675	136.477	34.5433	74.29	105.026	17.5694	57.6709	
152	1.26667	106.816	-22.3399	58.4972	109.207	-43.6431	35.603	105.631	-54.335	4.70318	109.18	-53.7222	-16.9245	89.1958	7.73907	-5.5442	90.2685	-1.66821	-34.866	108.918	-18.4458	-52.945	104.332	27.9662	-14.6889	106.284	19.5752	-42.2647	122.587	5.2443	-66.4743	124.704	37.8075	-7.4459	125.349	36.4732	-33.8175	132.123	25.6414	-60.2691	146.831	41.8966	2.69404	156.206	49.1083	-22.5249	159.65	53.3795	-42.7376	128.039	39.0467	44.5637	131.178	28.9914	74.9071	103.316	13.6654	60.1792	
153	1.275	105.376	-25.556	61.8346	108.026	-45.3714	34.9868	105.449	-54.4404	5.26182	110.652	-55.9534	-16.5729	85.2828	2.2462	-7.03955	91.0182	-5.20887	-35.1338	111.61	-20.5169	-51.2573	101.522	23.1781	-8.6731	107.761	17.8156	-43.3273	119.66	-0.922378	-66.9845	119.885	35.9321	-9.7497	125.235	34.2076	-36.4013	133.521	24.4785	-61.5576	144.504	42.2921	2.69493	151.756	47.2543	-21.2635	154.421	51.6423	-45.7214	124.901	36.1254	43.7434	128.463	31.9887	71.7853	103.233	12.9896	60.8998	
154	1.28333	106.091	-26.4231	60.4165	108.276	-45.9814	33.5495	108.423	-53.9891	6.31749	112.657	-53.3995	-18.6104	87.5047	1.54016	-10.1935	92.8454	-10.3969	-36.7641	116.187	-25.2791	-48.8907	101.56	22.4462	-11.4896	106.025	17.1449	-40.2968	120.03	-2.54144	-66.3584	120.663	34.9896	-6.43514	126.828	35.5563	-34.2539	130.569	22.3459	-60.4443	144.406	41.5362	4.42067	149.507	46.769	-17.3776	153.846	54.5675	-40.6955	122.842	31.2199	45.5601	129.849	30.3293	73.6718	98.7754	10.9559	59.5719	
155	1.29167	106.337	-27.5877	60.6574	108.3	-47.5997	32.8299	108.122	-55.2111	4.12466	115.306	-49.6817	-17.7968	87.8722	0.126786	-9.4726	97.8307	-12.1916	-36.257	115.68	-28.0401	-46.3803	97.9772	19.3799	-13.334	106.974	15.3522	-43.7023	121.18	-4.03471	-66.4243	121.789	34.3579	-5.91047	124.835	33.8638	-36.569	131.998	19.598	-62.4274	142.266	40.8574	5.82428	148.367	47.1199	-19.8083	150.685	53.9014	-43.4187	122.139	34.164	42.4261	128.623	28.2174	73.1272	100.828	9.33065	59.86	
156	1.3	104.494	-31.0838	58.5337	111.317	-47.8616	34.5569	111.395	-54.326	6.38415	115.001	-51.9181	-17.2702	86.4275	-4.29485	-9.13523	98.1148	-16.6798	-36.5577	120.108	-32.0829	-42.1938	99.8259	18.7828	-12.9962	101.907	11.4351	-39.2913	123.505	-4.9364	-65.5412	115.179	31.909	-10.042	120.862	29.0881	-38.3442	129.751	16.696	-61.9564	140.679	40.1133	4.65694	142.725	44.0139	-18.2944	148.428	54.0022	-44.1318	119.418	30.9807	42.0876	125.006	24.9834	73.4878	97.925	9.76244	59.1453	
157	1.30833	105.377	-34.8978	60.6598	110.052	-48.8523	28.6649	110.566	-54.6249	1.55278	116.967	-47.7004	-20.5387	87.5875	-5.64668	-5.89716	96.1062	-20.726	-34.0037	124.217	-37.7169	-37.9367	96.1235	15.0942	-14.3943	105.32	9.33088	-42.7316	123.423	-6.62947	-64.7819	117.285	31.9975	-7.36327	118.453	29.6451	-34.5997	130.046	19.4122	-60.8812	137.977	40.3044	5.00624	139.976	43.7893	-17.5475	145.652	51.9026	-40.1927	117.828	29.3112	48.109	121.001	24.5216	75.7739	95.5371	3.71291	59.4063	
